G04*
G04 #@! TF.GenerationSoftware,Altium Limited,Altium Designer,25.2.1 (25)*
G04*
G04 Layer_Color=65535*
%FSLAX44Y44*%
%MOMM*%
G71*
G04*
G04 #@! TF.SameCoordinates,12497F7A-5981-4CC2-A052-31E12089B655*
G04*
G04*
G04 #@! TF.FilePolarity,Positive*
G04*
G01*
G75*
%ADD10C,0.2500*%
%ADD11C,0.2000*%
%ADD12C,0.1524*%
%ADD13C,0.2540*%
D10*
X1398600Y965200D02*
G03*
X1398600Y965200I-1250J0D01*
G01*
X1657330Y1016920D02*
G03*
X1657330Y1016920I-1250J0D01*
G01*
X1387540Y989560D02*
G03*
X1387540Y989560I-1250J0D01*
G01*
X1640820Y1163670D02*
G03*
X1640820Y1163670I-1250J0D01*
G01*
X1404600Y835890D02*
G03*
X1404600Y835890I-1250J0D01*
G01*
D11*
X1401850Y951750D02*
X1455650D01*
X1401850D02*
Y978650D01*
X1455650D01*
Y951750D02*
Y978650D01*
X1642630Y958620D02*
Y1012420D01*
X1669530D01*
Y958620D02*
Y1012420D01*
X1642630Y958620D02*
X1669530D01*
X1395730Y1207130D02*
X1421130D01*
Y1101730D02*
Y1207130D01*
X1395730Y1101730D02*
X1421130D01*
X1395730D02*
Y1207130D01*
X1647190Y1054740D02*
Y1160140D01*
Y1054740D02*
X1672590D01*
Y1160140D01*
X1647190D02*
X1672590D01*
X1378790Y1015310D02*
Y1071810D01*
X1396540Y1073560D02*
X1421040D01*
X1438790Y1015310D02*
Y1071810D01*
X1396540Y1013560D02*
X1421040D01*
X1626120Y1221970D02*
X1653020D01*
X1626120Y1168170D02*
Y1221970D01*
Y1168170D02*
X1653020D01*
Y1221970D01*
X1487810Y1188720D02*
X1593210D01*
Y1214120D01*
X1487810D02*
X1593210D01*
X1487810Y1188720D02*
Y1214120D01*
X1395850Y861640D02*
Y918140D01*
X1413600Y919890D02*
X1438100D01*
X1455850Y861640D02*
Y918140D01*
X1413600Y859890D02*
X1438100D01*
D12*
X1629250Y1077290D02*
Y1085295D01*
X1466690Y842725D02*
X1629250D01*
X1466690D02*
Y920730D01*
Y1085295D02*
X1489690D01*
X1629250Y842725D02*
Y920730D01*
Y937290D02*
Y940730D01*
Y957290D02*
Y960730D01*
Y977290D02*
Y980730D01*
Y997290D02*
Y1000730D01*
Y1017290D02*
Y1020730D01*
Y1037290D02*
Y1040730D01*
Y1057290D02*
Y1060730D01*
X1606250Y1085295D02*
X1629250D01*
X1586250D02*
X1589690D01*
X1566250D02*
X1569690D01*
X1546250D02*
X1549690D01*
X1526250D02*
X1529690D01*
X1506250D02*
X1509690D01*
X1466690Y1077290D02*
Y1085295D01*
Y1057290D02*
Y1060730D01*
Y1037290D02*
Y1040730D01*
Y1017290D02*
Y1020730D01*
Y997290D02*
Y1000730D01*
Y977290D02*
Y980730D01*
Y957290D02*
Y960730D01*
Y937290D02*
Y940730D01*
X1551305Y1114552D02*
X1570355D01*
Y1126286D02*
Y1134314D01*
X1551305Y1146048D02*
X1570355D01*
D13*
X1503258Y1104901D02*
Y1109979D01*
X1505797D01*
X1506644Y1109133D01*
Y1107440D01*
X1505797Y1106594D01*
X1503258D01*
X1504951D02*
X1506644Y1104901D01*
X1511722Y1109979D02*
X1510029Y1109133D01*
X1508336Y1107440D01*
Y1105747D01*
X1509183Y1104901D01*
X1510876D01*
X1511722Y1105747D01*
Y1106594D01*
X1510876Y1107440D01*
X1508336D01*
X1606550Y1217928D02*
Y1212850D01*
X1609089D01*
X1609936Y1213696D01*
Y1214543D01*
X1609089Y1215389D01*
X1606550D01*
X1609089D01*
X1609936Y1216236D01*
Y1217082D01*
X1609089Y1217928D01*
X1606550D01*
X1611628Y1212850D02*
Y1216236D01*
X1613321Y1217928D01*
X1615014Y1216236D01*
Y1212850D01*
Y1215389D01*
X1611628D01*
X1616707Y1217928D02*
X1620092D01*
X1618400D01*
Y1212850D01*
X1671320Y937258D02*
Y932180D01*
X1673859D01*
X1674706Y933026D01*
Y933873D01*
X1673859Y934719D01*
X1671320D01*
X1673859D01*
X1674706Y935566D01*
Y936412D01*
X1673859Y937258D01*
X1671320D01*
X1676398D02*
X1679784D01*
Y936412D01*
X1676398Y933026D01*
Y932180D01*
X1679784D01*
X1370330Y1097280D02*
Y1102358D01*
X1372869D01*
X1373716Y1101512D01*
Y1099819D01*
X1372869Y1098973D01*
X1370330D01*
X1378794Y1101512D02*
X1377948Y1102358D01*
X1376255D01*
X1375408Y1101512D01*
Y1100666D01*
X1376255Y1099819D01*
X1377948D01*
X1378794Y1098973D01*
Y1098126D01*
X1377948Y1097280D01*
X1376255D01*
X1375408Y1098126D01*
X1375410Y889000D02*
Y896618D01*
X1379219D01*
X1380488Y895348D01*
Y892809D01*
X1379219Y891539D01*
X1375410D01*
X1377949D02*
X1380488Y889000D01*
X1388106Y895348D02*
X1386836Y896618D01*
X1384297D01*
X1383027Y895348D01*
Y894078D01*
X1384297Y892809D01*
X1386836D01*
X1388106Y891539D01*
Y890270D01*
X1386836Y889000D01*
X1384297D01*
X1383027Y890270D01*
X1539239Y950380D02*
Y953765D01*
X1534161D01*
Y950380D01*
X1536700Y953765D02*
Y952073D01*
X1538393Y945302D02*
X1539239Y946148D01*
Y947841D01*
X1538393Y948687D01*
X1537546D01*
X1536700Y947841D01*
Y946148D01*
X1535854Y945302D01*
X1535007D01*
X1534161Y946148D01*
Y947841D01*
X1535007Y948687D01*
X1534161Y943609D02*
X1539239D01*
Y941070D01*
X1538393Y940223D01*
X1536700D01*
X1535854Y941070D01*
Y943609D01*
X1534161Y938530D02*
Y936838D01*
Y937684D01*
X1539239D01*
X1538393Y938530D01*
X1534161Y930913D02*
Y934298D01*
X1537546Y930913D01*
X1538393D01*
X1539239Y931759D01*
Y933452D01*
X1538393Y934298D01*
X1539239Y925835D02*
Y929220D01*
X1536700D01*
Y927527D01*
Y929220D01*
X1534161D01*
X1664548Y1041401D02*
Y1046479D01*
X1667087D01*
X1667934Y1045633D01*
Y1043940D01*
X1667087Y1043094D01*
X1664548D01*
X1666241D02*
X1667934Y1041401D01*
X1673012D02*
X1669626D01*
X1673012Y1044786D01*
Y1045633D01*
X1672166Y1046479D01*
X1670473D01*
X1669626Y1045633D01*
X1484208Y1143001D02*
Y1148079D01*
X1486747D01*
X1487594Y1147233D01*
Y1145540D01*
X1486747Y1144694D01*
X1484208D01*
X1485901D02*
X1487594Y1143001D01*
X1492672Y1148079D02*
X1489286D01*
Y1145540D01*
X1490979Y1146386D01*
X1491826D01*
X1492672Y1145540D01*
Y1143847D01*
X1491826Y1143001D01*
X1490133D01*
X1489286Y1143847D01*
X1449918Y1022351D02*
Y1027429D01*
X1452457D01*
X1453304Y1026583D01*
Y1024890D01*
X1452457Y1024044D01*
X1449918D01*
X1451611D02*
X1453304Y1022351D01*
X1457536D02*
Y1027429D01*
X1454996Y1024890D01*
X1458382D01*
X1433408Y1098551D02*
Y1103629D01*
X1435947D01*
X1436794Y1102783D01*
Y1101090D01*
X1435947Y1100244D01*
X1433408D01*
X1435101D02*
X1436794Y1098551D01*
X1438486Y1102783D02*
X1439333Y1103629D01*
X1441026D01*
X1441872Y1102783D01*
Y1101936D01*
X1441026Y1101090D01*
X1440179D01*
X1441026D01*
X1441872Y1100244D01*
Y1099397D01*
X1441026Y1098551D01*
X1439333D01*
X1438486Y1099397D01*
X1379644Y948841D02*
Y953919D01*
X1382184D01*
X1383030Y953073D01*
Y951380D01*
X1382184Y950534D01*
X1379644D01*
X1381337D02*
X1383030Y948841D01*
X1384723D02*
X1386416D01*
X1385569D01*
Y953919D01*
X1384723Y953073D01*
X1458384Y1152313D02*
X1457537Y1153159D01*
X1455845D01*
X1454998Y1152313D01*
Y1148927D01*
X1455845Y1148081D01*
X1457537D01*
X1458384Y1148927D01*
X1463462Y1148081D02*
X1460076D01*
X1463462Y1151466D01*
Y1152313D01*
X1462616Y1153159D01*
X1460923D01*
X1460076Y1152313D01*
X1529080Y1156123D02*
X1528234Y1156969D01*
X1526541D01*
X1525694Y1156123D01*
Y1152737D01*
X1526541Y1151891D01*
X1528234D01*
X1529080Y1152737D01*
X1530773Y1151891D02*
X1532466D01*
X1531619D01*
Y1156969D01*
X1530773Y1156123D01*
M02*
