M48
;Layer_Color=9474304
;FILE_FORMAT=4:4
METRIC,LZ
;TYPE=PLATED
T01F00S00C0.7112
T02F00S00C1.0200
T03F00S00C1.1000
T04F00S00C2.1996
%
T01
X01339869Y00980421
X0139192Y0098806
X0138938Y0100584
X01393972Y01080501
X0139065Y0109982
X01390522Y01121763
X013462Y0109728
X0157226Y0117729
X0164973Y0118618
X01635101Y01152063
X0165608Y0110871
X0159619Y01110713
X0160528Y0109601
X0162814Y0103251
X01621499Y01014109
X01596099Y0100076
X01612133Y00977531
X0163576Y0098171
X0166116Y0097536
T02
X0137668Y0084836
X0140208
X0142748
X0145288
X0147828
X0150368
X0150876Y0113665
X0153416
X0148336
X0145796
X0149479Y0116967
X0135128Y0117983
Y0115443
Y0112903
X0161036Y0121285
X0163576
X0166116
X0158496
X0149606Y0123571
X0135128Y0120523
T03
X0165735Y0105918
Y0108458
T04
X0134239Y0084328
X0166751
X0166624Y0123952
X0134239Y0123825
M30
