M48
;Layer_Color=9474304
;FILE_FORMAT=4:4
METRIC,LZ
;TYPE=PLATED
T01F00S00C1.0200
T02F00S00C1.1000
T03F00S00C2.1996
%
T01
X0140843Y0111633
Y0114173
Y0116713
X0165989Y0114554
Y0112014
Y0109474
Y0106934
X0157861Y0120142
X0155321
X0152781
X0150241
X0140843Y0119253
T02
X0141605Y009652
X0144145
X0165608Y0097282
Y0099822
X0163957Y0118237
Y0120777
T03
X0138176Y0084328
X0167259Y0084455
Y012192
X0138176
M30
