G04*
G04 #@! TF.GenerationSoftware,Altium Limited,Altium Designer,25.2.1 (25)*
G04*
G04 Layer_Physical_Order=1*
G04 Layer_Color=255*
%FSLAX44Y44*%
%MOMM*%
G71*
G04*
G04 #@! TF.SameCoordinates,12497F7A-5981-4CC2-A052-31E12089B655*
G04*
G04*
G04 #@! TF.FilePolarity,Positive*
G04*
G01*
G75*
%ADD13C,0.2540*%
%ADD14R,0.8000X0.9500*%
%ADD15R,2.0066X0.9906*%
%ADD16R,1.3000X1.5500*%
%ADD17R,0.9500X0.8000*%
%ADD18R,0.9271X0.4318*%
%ADD19R,0.7500X0.8500*%
%ADD20R,0.8500X0.7500*%
%ADD32R,0.9906X1.2954*%
G04:AMPARAMS|DCode=33|XSize=1.6mm|YSize=1.6mm|CornerRadius=0.4mm|HoleSize=0mm|Usage=FLASHONLY|Rotation=0.000|XOffset=0mm|YOffset=0mm|HoleType=Round|Shape=RoundedRectangle|*
%AMROUNDEDRECTD33*
21,1,1.6000,0.8000,0,0,0.0*
21,1,0.8000,1.6000,0,0,0.0*
1,1,0.8000,0.4000,-0.4000*
1,1,0.8000,-0.4000,-0.4000*
1,1,0.8000,-0.4000,0.4000*
1,1,0.8000,0.4000,0.4000*
%
%ADD33ROUNDEDRECTD33*%
%ADD34C,1.6000*%
G04:AMPARAMS|DCode=35|XSize=1.6mm|YSize=1.6mm|CornerRadius=0.4mm|HoleSize=0mm|Usage=FLASHONLY|Rotation=270.000|XOffset=0mm|YOffset=0mm|HoleType=Round|Shape=RoundedRectangle|*
%AMROUNDEDRECTD35*
21,1,1.6000,0.8000,0,0,270.0*
21,1,0.8000,1.6000,0,0,270.0*
1,1,0.8000,-0.4000,-0.4000*
1,1,0.8000,-0.4000,0.4000*
1,1,0.8000,0.4000,0.4000*
1,1,0.8000,0.4000,-0.4000*
%
%ADD35ROUNDEDRECTD35*%
%ADD36C,1.5240*%
%ADD37R,1.5500X1.5500*%
%ADD38C,1.5500*%
%ADD39R,1.5500X1.5500*%
D13*
X1393312Y1206506D02*
G03*
X1394876Y1208351I-10477J10465D01*
G01*
X1671102Y1142725D02*
G03*
X1668061Y1153717I-11212J2815D01*
G01*
X1671388Y1118946D02*
G03*
X1671102Y1122955I-11498J1194D01*
G01*
X1437390Y1130072D02*
G03*
X1437640Y1131717I-23444J4399D01*
G01*
X1661055Y1106241D02*
G03*
X1649730Y1100255I-1165J-11501D01*
G01*
X1580193Y1169888D02*
Y1212319D01*
X1516380Y1135045D02*
X1517767D01*
X1514993D02*
X1516380D01*
X1652270Y998220D02*
Y1012190D01*
X1394876Y1208351D02*
X1397717Y1212319D01*
X1386528Y1199722D02*
X1393312Y1206506D01*
X1472546Y1068116D02*
Y1090930D01*
X1384510Y1078658D02*
X1389380Y1083528D01*
X1381230Y935990D02*
X1404620D01*
X1639964Y985126D02*
X1654175Y970915D01*
X1662430Y1017270D02*
X1674912D01*
Y949960D02*
X1676400Y951448D01*
X1637030Y949960D02*
X1674912D01*
X1676400Y951448D02*
Y1015782D01*
X1674912Y1017270D02*
X1676400Y1015782D01*
X1681262Y943610D02*
X1682750Y945098D01*
X1631721Y943610D02*
X1681262D01*
X1651802Y1194180D02*
X1682750Y1163232D01*
Y945098D02*
Y1163232D01*
X1654810Y1024890D02*
X1662430Y1017270D01*
X1671102Y1122955D02*
Y1142725D01*
Y1122955D02*
Y1122955D01*
X1671388Y1118943D02*
X1671388Y1118946D01*
X1671388Y1118943D02*
X1671388Y1118946D01*
X1670150Y1107054D02*
X1671388Y1118943D01*
X1659890Y1034080D02*
X1664000Y1029970D01*
X1659890Y1034080D02*
Y1068930D01*
Y1069340D02*
X1671450Y1080900D01*
X1640840Y1023620D02*
X1652270Y1012190D01*
X1640840Y1023620D02*
Y1070010D01*
X1648330Y1077500D01*
X1630233Y945098D02*
X1631721Y943610D01*
X1621470Y949010D02*
X1626550D01*
X1630233Y945098D02*
Y945327D01*
X1626550Y949010D02*
X1630233Y945327D01*
X1635313Y951677D02*
X1637030Y949960D01*
X1635313Y951677D02*
Y955541D01*
X1633081Y957773D02*
X1635313Y955541D01*
X1632707Y957773D02*
X1633081D01*
X1659890Y1093632D02*
Y1094740D01*
X1652270Y1086012D02*
X1659890Y1093632D01*
X1652270Y1082608D02*
Y1086012D01*
X1648330Y1078668D02*
X1652270Y1082608D01*
X1648330Y1077500D02*
Y1078668D01*
X1665152Y1105826D02*
X1671450Y1099528D01*
X1643250Y1079604D02*
Y1080772D01*
X1647190Y1084712D01*
X1632576Y1068930D02*
X1643250Y1079604D01*
X1671450Y1080900D02*
Y1099528D01*
X1647190Y1084712D02*
Y1093308D01*
X1661055Y1106241D02*
X1665152Y1105826D01*
X1621470Y1009010D02*
X1626550D01*
X1639964Y995596D01*
Y985126D02*
Y995596D01*
X1621470Y969010D02*
X1632707Y957773D01*
X1625440Y928930D02*
X1630520D01*
X1625440D02*
X1635760Y918610D01*
Y839688D02*
Y918610D01*
X1413660Y934570D02*
X1448350Y899880D01*
Y850140D02*
Y899880D01*
X1634272Y838200D02*
X1635760Y839688D01*
X1471850Y1066390D02*
X1474470Y1069010D01*
X1467511Y1066390D02*
X1471850D01*
X1556385Y1125855D02*
X1560830Y1130300D01*
X1556385Y1112738D02*
Y1125855D01*
X1632335Y1194180D02*
X1651802D01*
X1627760Y1189605D02*
X1632335Y1194180D01*
X1627760Y1175135D02*
Y1189605D01*
X1588429Y1170940D02*
X1626875D01*
X1628363Y1172428D02*
Y1174532D01*
X1626875Y1170940D02*
X1628363Y1172428D01*
X1627760Y1175135D02*
X1628363Y1174532D01*
X1639624Y1167348D02*
Y1175848D01*
X1592021Y1165860D02*
X1638137D01*
X1642364Y1178587D02*
X1643353D01*
X1639624Y1175848D02*
X1642364Y1178587D01*
X1638137Y1165860D02*
X1639624Y1167348D01*
X1543927Y1141337D02*
X1560830Y1158240D01*
X1397717Y1212319D02*
X1399205Y1213807D01*
X1386528Y1141730D02*
Y1199722D01*
X1399205Y1213807D02*
X1578705D01*
X1495509Y1106889D02*
Y1111969D01*
X1514218Y1130678D02*
Y1134270D01*
X1516380Y1135045D02*
Y1136750D01*
X1493520Y1104900D02*
X1495509Y1106889D01*
Y1111969D02*
X1514218Y1130678D01*
Y1134270D02*
X1514993Y1135045D01*
X1393582Y1105778D02*
X1398071Y1113223D01*
X1393582Y1105778D02*
Y1105778D01*
X1539240Y1187450D02*
X1553210Y1201420D01*
X1449170Y1151990D02*
X1458248Y1161068D01*
X1449170Y1136650D02*
Y1151990D01*
X1466702Y1161068D02*
X1472546Y1166912D01*
X1458248Y1161068D02*
X1466702D01*
X1437640Y1131971D02*
Y1148080D01*
X1477010Y1187450D02*
X1539240D01*
X1437640Y1148080D02*
X1477010Y1187450D01*
X1524218Y1111250D02*
X1554897D01*
X1518542Y1130678D02*
Y1134270D01*
X1522730Y1112738D02*
Y1126490D01*
X1517767Y1135045D02*
X1518542Y1134270D01*
X1522730Y1112738D02*
X1524218Y1111250D01*
X1518542Y1130678D02*
X1522730Y1126490D01*
X1478090Y1127760D02*
Y1153138D01*
X1488272Y1163320D01*
X1580809D01*
X1478090Y1104900D02*
Y1127760D01*
X1594125Y1160780D02*
X1654194D01*
X1573721Y1145769D02*
X1581111Y1153160D01*
X1474034Y1168400D02*
X1578705D01*
X1560830Y1158240D02*
X1584401D01*
X1586505Y1153160D02*
X1594125Y1160780D01*
X1534160Y1131570D02*
X1543927Y1141337D01*
X1584401Y1158240D02*
X1592021Y1165860D01*
X1580809Y1163320D02*
X1588429Y1170940D01*
X1578705Y1168400D02*
X1580193Y1169888D01*
X1578705Y1213807D02*
X1580193Y1212319D01*
X1581111Y1153160D02*
X1586505D01*
X1534160Y1122288D02*
Y1131570D01*
X1573721Y1139800D02*
Y1145769D01*
X1654194Y1160780D02*
X1655464Y1159510D01*
X1554897Y1111250D02*
X1556385Y1112738D01*
X1444339Y965296D02*
X1449668Y970625D01*
X1472855D01*
X1441546Y965296D02*
X1444339D01*
X1385258Y1140460D02*
X1386528Y1141730D01*
X1408430D01*
X1385258Y1089790D02*
Y1140460D01*
X1472546Y1090930D02*
X1480688D01*
X1488330Y1098572D01*
Y1098960D01*
X1493520Y1104150D01*
Y1104900D01*
X1472546Y1090930D02*
Y1166912D01*
X1421380Y1129280D02*
X1437640D01*
X1408430Y1116330D02*
X1421380Y1129280D01*
X1418590Y1005990D02*
Y1080770D01*
X1393582Y1105778D02*
X1418590Y1080770D01*
X1471335Y1066905D02*
X1472546Y1068116D01*
X1466448Y1065327D02*
X1467511Y1066390D01*
X1466448Y1061738D02*
Y1065327D01*
X1387038Y1087120D02*
Y1088010D01*
X1385258Y1089790D02*
X1387038Y1088010D01*
X1398071Y1113223D02*
X1398905Y1113971D01*
X1401009D01*
X1404386Y1112607D01*
X1437640Y1129280D02*
Y1130025D01*
X1474470Y1069010D02*
X1478073Y1072613D01*
X1437640Y1129280D02*
X1439670Y1127250D01*
X1461670D01*
Y1136650D01*
Y1117850D02*
X1461920Y1117600D01*
X1461670Y1117850D02*
Y1127250D01*
X1443990Y1072032D02*
X1448770Y1076812D01*
Y1119170D01*
X1443990Y1019810D02*
Y1072032D01*
Y1019810D02*
X1454870Y1008930D01*
X1472546Y1166912D02*
X1474034Y1168400D01*
X1478073Y1072613D02*
X1484780D01*
X1448852Y851790D02*
X1450340Y850302D01*
Y839688D02*
Y850302D01*
X1459150Y1054440D02*
X1466448Y1061738D01*
X1455420Y1051710D02*
X1458150Y1054440D01*
X1459150D01*
X1496250Y1131240D02*
X1496614D01*
X1512144Y1146770D01*
X1515110Y1148480D02*
Y1148520D01*
X1495674Y1130300D02*
Y1130664D01*
X1496250Y1131240D01*
X1513400Y1146770D02*
X1515110Y1148480D01*
X1512144Y1146770D02*
X1513400D01*
X1388829Y954321D02*
Y962470D01*
X1401950Y941200D02*
X1411428D01*
X1388829Y954321D02*
X1401950Y941200D01*
X1386099Y965200D02*
X1388829Y962470D01*
X1385570Y965200D02*
X1386099D01*
X1392860Y980260D02*
Y980260D01*
X1389380Y976780D02*
X1392860Y980260D01*
Y980260D02*
X1418590Y1005990D01*
X1411428Y941200D02*
X1413660Y938968D01*
Y934570D02*
Y938968D01*
X1649263Y1099394D02*
X1649730Y1100255D01*
X1668769Y1105673D02*
X1670150Y1107054D01*
X1666665Y1105673D02*
X1668769D01*
X1647190Y1093308D02*
X1649263Y1099394D01*
X1416050Y958850D02*
X1446210Y989010D01*
X1474470D01*
X1472855Y970625D02*
X1474470Y969010D01*
X1451780Y1005840D02*
X1454870Y1008930D01*
X1431290Y1005840D02*
X1451780D01*
X1450340Y839688D02*
X1451828Y838200D01*
X1634272D01*
X1375770Y941450D02*
Y1032870D01*
X1384510Y1041610D02*
Y1078658D01*
X1375770Y1032870D02*
X1384510Y1041610D01*
X1387038Y1087120D02*
X1389380D01*
Y1083528D02*
Y1087120D01*
X1454870Y1008930D02*
X1478440D01*
X1375770Y941450D02*
X1381230Y935990D01*
X1655464Y1159510D02*
X1662268D01*
X1668061Y1153717D01*
X1625440Y1068930D02*
X1632576D01*
X1526540Y1146868D02*
X1538395D01*
X1517586Y1150456D02*
X1522952D01*
X1538395Y1146868D02*
X1543927Y1141337D01*
X1516380Y1149250D02*
X1517586Y1150456D01*
X1522952D02*
X1526540Y1146868D01*
X1478440Y988930D02*
X1482123Y992613D01*
X1547939Y1130300D02*
X1560830D01*
X1455420Y1038710D02*
X1463980D01*
X1469677Y1044407D02*
Y1045247D01*
X1463980Y1038710D02*
X1469677Y1044407D01*
Y1045247D02*
X1473360Y1048930D01*
X1534160Y1122288D02*
X1535648Y1120800D01*
X1547939D01*
X1544574Y1131189D02*
X1545463Y1130300D01*
X1543927Y1140360D02*
X1547379D01*
X1547939Y1139800D01*
X1473360Y1048930D02*
X1478440D01*
X1663703Y873335D02*
Y867410D01*
X1672590D01*
Y873335D01*
X1668146Y867410D02*
Y870372D01*
X1672590Y876297D02*
X1663703D01*
X1672590Y882222D01*
X1663703D01*
Y885184D02*
Y891109D01*
Y888147D01*
X1672590D01*
X1665184Y899996D02*
X1663703Y898515D01*
Y895553D01*
X1665184Y894071D01*
X1671109D01*
X1672590Y895553D01*
Y898515D01*
X1671109Y899996D01*
X1672590Y917770D02*
Y911846D01*
X1666665Y917770D01*
X1665184D01*
X1663703Y916289D01*
Y913327D01*
X1665184Y911846D01*
Y920733D02*
X1663703Y922214D01*
Y925176D01*
X1665184Y926657D01*
X1666665D01*
X1668146Y925176D01*
Y923695D01*
Y925176D01*
X1669628Y926657D01*
X1671109D01*
X1672590Y925176D01*
Y922214D01*
X1671109Y920733D01*
X1643383Y856825D02*
Y850900D01*
X1647826D01*
Y853862D01*
Y850900D01*
X1652270D01*
Y859787D02*
X1646345D01*
X1643383Y862749D01*
X1646345Y865712D01*
X1652270D01*
X1647826D01*
Y859787D01*
X1643383Y868674D02*
X1652270D01*
Y874599D01*
X1643383Y877561D02*
X1652270D01*
Y883486D01*
X1644864Y901260D02*
X1643383Y899779D01*
Y896817D01*
X1644864Y895336D01*
X1650789D01*
X1652270Y896817D01*
Y899779D01*
X1650789Y901260D01*
X1647826D01*
Y898298D01*
X1643383Y904223D02*
X1650789D01*
X1652270Y905704D01*
Y908666D01*
X1650789Y910147D01*
X1643383D01*
X1652270Y913110D02*
X1646345D01*
X1643383Y916072D01*
X1646345Y919035D01*
X1652270D01*
X1647826D01*
Y913110D01*
X1652270Y921997D02*
X1643383D01*
Y926441D01*
X1644864Y927922D01*
X1647826D01*
X1649308Y926441D01*
Y921997D01*
Y924959D02*
X1652270Y927922D01*
X1643383Y930884D02*
X1652270D01*
Y935328D01*
X1650789Y936809D01*
X1644864D01*
X1643383Y935328D01*
Y930884D01*
D14*
X1664000Y1029970D02*
D03*
X1651000D02*
D03*
X1493520Y1127760D02*
D03*
X1480520D02*
D03*
X1493520Y1104900D02*
D03*
X1480520D02*
D03*
X1461920Y1117600D02*
D03*
X1448920D02*
D03*
D15*
X1621470Y929010D02*
D03*
Y949010D02*
D03*
Y969010D02*
D03*
Y989010D02*
D03*
Y1009010D02*
D03*
Y1029010D02*
D03*
Y1049010D02*
D03*
Y1069010D02*
D03*
X1474470D02*
D03*
Y1049010D02*
D03*
Y1029010D02*
D03*
Y1009010D02*
D03*
Y989010D02*
D03*
Y969010D02*
D03*
Y949010D02*
D03*
Y929010D02*
D03*
D16*
X1386290Y1003810D02*
D03*
Y1083310D02*
D03*
X1431290Y1003810D02*
D03*
Y1083310D02*
D03*
X1403350Y850140D02*
D03*
Y929640D02*
D03*
X1448350Y850140D02*
D03*
Y929640D02*
D03*
D17*
X1455420Y1038710D02*
D03*
Y1051710D02*
D03*
X1385570Y978200D02*
D03*
Y965200D02*
D03*
D18*
X1547939Y1139800D02*
D03*
Y1130300D02*
D03*
Y1120800D02*
D03*
X1573721D02*
D03*
Y1139800D02*
D03*
D19*
X1449170Y1136650D02*
D03*
X1461670D02*
D03*
D20*
X1516380Y1149250D02*
D03*
Y1136750D02*
D03*
D32*
X1597970Y1084260D02*
D03*
X1577970D02*
D03*
X1557970D02*
D03*
X1537970D02*
D03*
X1517970D02*
D03*
X1497970D02*
D03*
D33*
X1416050Y965200D02*
D03*
D34*
X1441450D02*
D03*
X1656080Y972820D02*
D03*
X1639570Y1207770D02*
D03*
D35*
X1656080Y998220D02*
D03*
X1639570Y1182370D02*
D03*
D36*
X1381760Y843280D02*
D03*
X1672590Y844550D02*
D03*
Y1219200D02*
D03*
X1381760D02*
D03*
D37*
X1408430Y1116330D02*
D03*
X1659890Y1069340D02*
D03*
D38*
X1408430Y1141730D02*
D03*
Y1167130D02*
D03*
Y1192530D02*
D03*
X1659890Y1145540D02*
D03*
Y1120140D02*
D03*
Y1094740D02*
D03*
X1502410Y1201420D02*
D03*
X1527810D02*
D03*
X1553210D02*
D03*
D39*
X1578610D02*
D03*
M02*
