G04*
G04 #@! TF.GenerationSoftware,Altium Limited,Altium Designer,25.2.1 (25)*
G04*
G04 Layer_Color=16711935*
%FSLAX44Y44*%
%MOMM*%
G71*
G04*
G04 #@! TF.SameCoordinates,12497F7A-5981-4CC2-A052-31E12089B655*
G04*
G04*
G04 #@! TF.FilePolarity,Negative*
G04*
G01*
G75*
G04:AMPARAMS|DCode=25|XSize=1.8032mm|YSize=1.8032mm|CornerRadius=0.5016mm|HoleSize=0mm|Usage=FLASHONLY|Rotation=0.000|XOffset=0mm|YOffset=0mm|HoleType=Round|Shape=RoundedRectangle|*
%AMROUNDEDRECTD25*
21,1,1.8032,0.8000,0,0,0.0*
21,1,0.8000,1.8032,0,0,0.0*
1,1,1.0032,0.4000,-0.4000*
1,1,1.0032,-0.4000,-0.4000*
1,1,1.0032,-0.4000,0.4000*
1,1,1.0032,0.4000,0.4000*
%
%ADD25ROUNDEDRECTD25*%
%ADD26C,1.8032*%
G04:AMPARAMS|DCode=27|XSize=1.8032mm|YSize=1.8032mm|CornerRadius=0.5016mm|HoleSize=0mm|Usage=FLASHONLY|Rotation=270.000|XOffset=0mm|YOffset=0mm|HoleType=Round|Shape=RoundedRectangle|*
%AMROUNDEDRECTD27*
21,1,1.8032,0.8000,0,0,270.0*
21,1,0.8000,1.8032,0,0,270.0*
1,1,1.0032,-0.4000,-0.4000*
1,1,1.0032,-0.4000,0.4000*
1,1,1.0032,0.4000,0.4000*
1,1,1.0032,0.4000,-0.4000*
%
%ADD27ROUNDEDRECTD27*%
%ADD28C,1.7272*%
%ADD29R,1.7532X1.7532*%
%ADD30C,1.7532*%
%ADD31R,1.7532X1.7532*%
D25*
X1416050Y965200D02*
D03*
D26*
X1441450D02*
D03*
X1656080Y972820D02*
D03*
X1639570Y1207770D02*
D03*
D27*
X1656080Y998220D02*
D03*
X1639570Y1182370D02*
D03*
D28*
X1381760Y843280D02*
D03*
X1672590Y844550D02*
D03*
Y1219200D02*
D03*
X1381760D02*
D03*
D29*
X1408430Y1116330D02*
D03*
X1659890Y1069340D02*
D03*
D30*
X1408430Y1141730D02*
D03*
Y1167130D02*
D03*
Y1192530D02*
D03*
X1659890Y1145540D02*
D03*
Y1120140D02*
D03*
Y1094740D02*
D03*
X1502410Y1201420D02*
D03*
X1527810D02*
D03*
X1553210D02*
D03*
D31*
X1578610D02*
D03*
M02*
